#!OML:ASF E:\motion texture\Top Level 1\Subject 1\Session 1\male.ASF
:FULLY-SPECIFIED
:DEGREES
238
root -2.28177 17.9071 3.87186 464.842 -77.5761 -470.458
lowerback 5.57921 3.16937 10.7882
upperback 0.0747458 4.89178 3.36735
thorax -2.44877 2.26759 -2.84886
lowerneck -16.2203 -7.42785 -8.55383
upperneck 14.0873 -9.66066 8.41555
head 7.84804 -4.33605 3.00763
rclavicle -2.85939e-014 -1.64991e-014
rhumerus 7.05679 19.5779 -77.7756
rradius 77.1192
rwrist -9.11601
rhand -8.67351 -12.5232
rfingers 7.12502
rthumb 17.2607 -41.7766
lclavicle -2.85939e-014 -1.64991e-014
lhumerus -61.9126 -2.46315 74.0722
lradius 46.8885
lwrist -3.47363
lhand -6.28644 3.72838
lfingers 7.12502
lthumb 19.557 32.7647
rfemur 4.45977 0.378533 38.9684
rtibia 27.2467
rfoot -15.116 -2.91462
rtoes 14.1868
lfemur -90.8423 7.83886 -11.3123
ltibia 73.0494
lfoot 373.498 193.089
ltoes 0.961312
239
root -2.40648 17.9043 3.8787 465.416 -77.5603 -470.827
lowerback 5.47069 3.23059 10.8183
upperback 0.0424589 4.96252 3.33458
thorax -2.40746 2.30376 -2.89629
lowerneck -16.2627 -7.44019 -8.57683
upperneck 13.9479 -9.66755 8.47613
head 7.81448 -4.33486 3.02975
rclavicle -4.11795e-014 -8.94531e-015
rhumerus 6.82879 19.5032 -77.8016
rradius 77.1552
rwrist -8.95368
rhand -8.61904 -12.4217
rfingers 7.12502
rthumb 17.3131 -41.6706
lclavicle -4.11795e-014 -8.94531e-015
lhumerus -61.789 -2.49334 74.1358
lradius 46.958
lwrist -3.44789
lhand -6.32209 3.68353
lfingers 7.12502
lthumb 19.5227 32.7234
rfemur 4.73064 0.594777 38.9205
rtibia 27.1639
rfoot -15.1665 -2.75226
rtoes 13.4373
lfemur -90.5416 7.90941 -11.4358
ltibia 74.2176
lfoot 374.294 193.259
ltoes 1.22865
240
root -2.5312 17.9002 3.88544 466.127 -77.5638 -471.302
lowerback 5.33092 3.29149 10.8077
upperback 0.00598565 5.02666 3.29901
thorax -2.3568 2.33774 -2.92212
lowerneck -16.2953 -7.44209 -8.58976
upperneck 13.7951 -9.66123 8.53191
head 7.77293 -4.32777 3.05078
rclavicle -2.28478e-014 -8.74653e-014
rhumerus 6.57905 19.4678 -77.8439
rradius 77.1821
rwrist -8.84193
rhand -8.57845 -12.3285
rfingers 7.12502
rthumb 17.3522 -41.5739
lclavicle -2.28478e-014 -8.74653e-014
lhumerus -61.6446 -2.49164 74.2225
lradius 47.0457
lwrist -3.41708
lhand -6.35426 3.63035
lfingers 7.12502
lthumb 19.4918 32.6733
rfemur 4.96474 0.863895 38.864
rtibia 27.0932
rfoot -15.2273 -2.62684
rtoes 12.5867
lfemur -90.1139 8.02783 -11.5708
ltibia 75.4614
lfoot 375.079 193.573
ltoes 1.47545
241
root -2.65626 17.8949 3.89191 466.944 -77.5776 -471.843
lowerback 5.15524 3.34962 10.7668
upperback -0.0398252 5.08146 3.26254
thorax -2.29938 2.3677 -2.92966
lowerneck -16.3283 -7.43343 -8.59782
upperneck 13.6445 -9.64206 8.58918
head 7.73087 -4.31424 3.07326
rclavicle 3.57812e-015 -1.2424e-014
rhumerus 6.30289 19.4702 -77.9062
rradius 77.1971
rwrist -8.79551
rhand -8.54252 -12.2542
rfingers 7.12502
rthumb 17.3868 -41.4966
lclavicle 3.57812e-015 -1.2424e-014
lhumerus -61.4843 -2.46269 74.3306
lradius 47.148
lwrist -3.3815
lhand -6.38417 3.57412
lfingers 7.12502
lthumb 19.463 32.62
rfemur 5.15963 1.18315 38.8162
rtibia 27.0281
rfoot -15.3019 -2.55642
rtoes 11.661
lfemur -89.574 8.18918 -11.7048
ltibia 76.7822
lfoot 375.851 194.056
ltoes 1.70678
242
root -2.78189 17.8882 3.89798 467.828 -77.5839 -472.41
lowerback 4.94133 3.40368 10.7156
upperback -0.0963824 5.12607 3.22899
thorax -2.23416 2.39279 -2.92555
lowerneck -16.3675 -7.41543 -8.59674
upperneck 13.5026 -9.61169 8.64209
head 7.6911 -4.29512 3.09415
rclavicle -1.93442e-014 9.54166e-015
rhumerus 5.99739 19.5044 -77.9913
rradius 77.1975
rwrist -8.80485
rhand -8.50381 -12.1964
rfingers 7.12502
rthumb 17.424 -41.4355
lclavicle -1.93442e-014 9.54166e-015
lhumerus -61.3085 -2.41732 74.4648
lradius 47.2616
lwrist -3.33225
lhand -6.40353 3.5314
lfingers 7.12502
lthumb 19.4444 32.5792
rfemur 5.31572 1.54026 38.7967
rtibia 26.9642
rfoot -15.4033 -2.54038
rtoes 10.7878
lfemur -88.9327 8.39407 -11.8201
ltibia 78.184
lfoot 376.619 194.752
ltoes 1.90078
243
root -2.90823 17.8801 3.90355 468.731 -77.5752 -472.958
lowerback 4.69057 3.45192 10.6663
upperback -0.162736 5.15889 3.19978
thorax -2.16023 2.41206 -2.91498
lowerneck -16.41 -7.38877 -8.58885
upperneck 13.3689 -9.57161 8.69516
head 7.65338 -4.27093 3.11518
rclavicle -3.07992e-014 -6.75868e-014
rhumerus 5.65701 19.5616 -78.1015
rradius 77.185
rwrist -8.84601
rhand -8.46363 -12.16
rfingers 7.12502
rthumb 17.4627 -41.3956
lclavicle -3.07992e-014 -6.75868e-014
lhumerus -61.1136 -2.36443 74.6268
lradius 47.3806
lwrist -3.27261
lhand -6.4081 3.52246
lfingers 7.12502
lthumb 19.44 32.5707
rfemur 5.44392 1.92079 38.8132
rtibia 26.8915
rfoot -15.5287 -2.57707
rtoes 9.98915
lfemur -88.1939 8.63415 -11.9069
ltibia 79.6668
lfoot 377.381 195.731
ltoes 1.99665
244
root -3.03546 17.8705 3.90877 469.601 -77.5451 -473.444
lowerback 4.41621 3.4903 10.6341
upperback -0.24084 5.1772 3.17482
thorax -2.08609 2.4234 -2.90728
lowerneck -16.4596 -7.35352 -8.57197
upperneck 13.2526 -9.52254 8.74614
head 7.62126 -4.24191 3.13505
rclavicle 2.41337e-014 4.27387e-014
rhumerus 5.27447 19.636 -78.2442
rradius 77.1581
rwrist -8.88722
rhand -8.41287 -12.1267
rfingers 7.12502
rthumb 17.5115 -41.358
lclavicle 2.41337e-014 4.27387e-014
lhumerus -60.9084 -2.31352 74.816
lradius 47.5063
lwrist -3.19876
lhand -6.40169 3.55107
lfingers 7.12502
lthumb 19.4462 32.5987
rfemur 5.55967 2.30301 38.8668
rtibia 26.8006
rfoot -15.6791 -2.65524
rtoes 9.2942
lfemur -87.3552 8.89881 -11.9562
ltibia 81.4997
lfoot 379.352 211.388
ltoes 1.99123
245
root -3.16363 17.8593 3.91387 470.419 -77.4933 -473.86
lowerback 4.1315 3.51851 10.6249
upperback -0.326348 5.18212 3.1547
thorax -2.014 2.42723 -2.906
lowerneck -16.5186 -7.31123 -8.53972
upperneck 13.1494 -9.46498 8.78157
head 7.59267 -4.20908 3.14819
rclavicle 2.31708e-014 2.47487e-014
rhumerus 4.84568 19.7198 -78.4172
rradius 77.1205
rwrist -8.90046
rhand -8.35321 -12.1039
rfingers 7.12502
rthumb 17.569 -41.3301
lclavicle 2.31708e-014 2.47487e-014
lhumerus -60.6884 -2.26962 75.0363
lradius 47.6353
lwrist -3.1139
lhand -6.40243 3.55911
lfingers 7.12502
lthumb 19.4455 32.6068
rfemur 5.67834 2.66461 38.9467
rtibia 26.6867
rfoot -15.8497 -2.75495
rtoes 8.69855
lfemur -86.4061 9.18184 -11.9677
ltibia 83.7094
lfoot 382.15 226.998
ltoes 1.83475
246
root -3.29301 17.8466 3.91918 471.178 -77.4297 -474.212
lowerback 3.84552 3.53698 10.6366
upperback -0.418126 5.17511 3.13494
thorax -1.94747 2.42425 -2.91537
lowerneck -16.5687 -7.26147 -8.49568
upperneck 13.0483 -9.39951 8.80868
head 7.56154 -4.17292 3.15798
rclavicle 4.00116e-014 2.66371e-014
rhumerus 4.36359 19.8031 -78.6239
rradius 77.0737
rwrist -8.86803
rhand -8.25284 -12.0671
rfingers 7.12502
rthumb 17.6655 -41.2846
lclavicle 4.00116e-014 2.66371e-014
lhumerus -60.4612 -2.24572 75.2892
lradius 47.7743
lwrist -3.0184
lhand -6.40577 3.58421
lfingers 7.12502
lthumb 19.4422 32.6322
rfemur 5.81321 2.98414 39.0297
rtibia 26.5452
rfoot -16.0337 -2.85317
rtoes 8.18604
lfemur -85.3368 9.47351 -11.9518
ltibia 85.9003
lfoot 387.146 242.459
ltoes 1.51446
247
root -3.42375 17.8324 3.92509 471.894 -77.362 -474.521
lowerback 3.56689 3.54801 10.6652
upperback -0.515475 5.16012 3.11284
thorax -1.89026 2.41633 -2.93685
lowerneck -16.6131 -7.2071 -8.43987
upperneck 12.951 -9.32931 8.8242
head 7.52907 -4.13513 3.16281
rclavicle -2.4991e-014 -1.77912e-014
rhumerus 3.82086 19.8841 -78.8595
rradius 77.0251
rwrist -8.78662
rhand -8.15875 -12.0462
rfingers 7.12502
rthumb 17.7561 -41.2555
lclavicle -2.4991e-014 -1.77912e-014
lhumerus -60.2307 -2.24478 75.5753
lradius 47.9312
lwrist -2.92123
lhand -6.41407 3.61375
lfingers 7.12502
lthumb 19.4343 32.6625
rfemur 5.97122 3.25354 39.0972
rtibia 26.3729
rfoot -16.2197 -2.93252
rtoes 7.70686
lfemur -84.1398 9.7686 -11.9176
ltibia 87.6891
lfoot 402.113 257.323
ltoes 1.11826
248
root -3.55617 17.817 3.93192 472.596 -77.2963 -474.827
lowerback 3.29908 3.55412 10.7057
upperback -0.615663 5.14051 3.08598
thorax -1.84127 2.40538 -2.97055
lowerneck -16.6453 -7.14861 -8.37519
upperneck 12.8527 -9.25485 8.83009
head 7.49294 -4.09612 3.1639
rclavicle -4.73977e-015 -2.61402e-014
rhumerus 3.21393 19.962 -79.1207
rradius 76.9804
rwrist -8.66541
rhand -8.05897 -12.0237
rfingers 7.12502
rthumb 17.8521 -41.2243
lclavicle -4.73977e-015 -2.61402e-014
lhumerus -59.9975 -2.26712 75.8917
lradius 48.099
lwrist -2.84501
lhand -6.46188 3.53924
lfingers 7.12502
lthumb 19.3883 32.5927
rfemur 6.15123 3.46284 39.1287
rtibia 26.1828
rfoot -16.4076 -2.96655
rtoes 7.23288
lfemur -82.8068 10.07 -11.8745
ltibia 88.7576
lfoot 503.787 263.297
ltoes 0.743286
249
root -3.69068 17.8004 3.93979 473.334 -77.2405 -475.179
lowerback 3.04042 3.55891 10.744
upperback -0.718214 5.12031 3.05358
thorax -1.79968 2.39371 -3.00971
lowerneck -16.6703 -7.08724 -8.31265
upperneck 12.7587 -9.1773 8.83746
head 7.45694 -4.05583 3.16635
rclavicle 5.38582e-014 -4.77083e-015
rhumerus 2.54231 20.0368 -79.4013
rradius 76.94
rwrist -8.51418
rhand -7.97381 -12.0082
rfingers 7.12502
rthumb 17.934 -41.2013
lclavicle 5.38582e-014 -4.77083e-015
lhumerus -59.7663 -2.31137 76.2384
lradius 48.297
lwrist -2.77052
lhand -6.51137 3.43619
lfingers 7.12502
lthumb 19.3407 32.4944
rfemur 6.35428 3.62853 39.1131
rtibia 25.9759
rfoot -16.5833 -2.95107
rtoes 6.72577
lfemur -81.3355 10.3794 -11.8309
ltibia 88.9002
lfoot 543.202 250.138
ltoes 0.526255
250
root -3.82781 17.783 3.94883 474.169 -77.1899 -475.637
lowerback 2.78462 3.56663 10.7774
upperback -0.822219 5.10411 3.01759
thorax -1.76081 2.38386 -3.05032
lowerneck -16.6949 -7.02538 -8.24985
upperneck 12.6759 -9.09855 8.83593
head 7.42402 -4.01562 3.16592
rclavicle 5.77718e-016 7.67309e-014
rhumerus 1.8082 20.115 -79.6949
rradius 76.9039
rwrist -8.35085
rhand -7.90899 -11.9906
rfingers 7.12502
rthumb 17.9964 -41.178
lclavicle 5.77718e-016 7.67309e-014
lhumerus -59.5401 -2.3703 76.613
lradius 48.5308
lwrist -2.69823
lhand -6.55985 3.30486
lfingers 7.12502
lthumb 19.2941 32.3677
rfemur 6.57595 3.7714 39.051
rtibia 25.7621
rfoot -16.7488 -2.87973
rtoes 6.21124
lfemur -79.7315 10.712 -11.788
ltibia 88.0596
lfoot 551.409 235.49
ltoes 0.486062
251
root -3.96805 17.7649 3.95898 475.141 -77.1456 -476.237
lowerback 2.51843 3.58165 10.7979
upperback -0.924941 5.09543 2.97707
thorax -1.71444 2.37831 -3.08799
lowerneck -16.7152 -6.96334 -8.18961
upperneck 12.5992 -9.01941 8.83197
head 7.39239 -3.97563 3.16519
rclavicle -2.13383e-014 1.64991e-014
rhumerus 1.01567 20.1946 -79.9964
rradius 76.8708
rwrist -8.19543
rhand -7.86477 -11.9652
rfingers 7.12502
rthumb 18.039 -41.1486
lclavicle -2.13383e-014 1.64991e-014
lhumerus -59.3144 -2.44196 77.0133
lradius 48.8098
lwrist -2.61124
lhand -6.58922 3.18108
lfingers 7.12502
lthumb 19.2659 32.2468
rfemur 6.81063 3.91045 38.941
rtibia 25.5517
rfoot -16.8964 -2.7575
rtoes 5.67178
lfemur -77.9974 11.0675 -11.7456
ltibia 86.3375
lfoot 555.625 220.813
ltoes 0.588808
